<?xml version="1.0" encoding="UTF-8"?>
<svg width="64px" height="64px" viewBox="0 0 64 64" version="1.1" xmlns="http://www.w3.org/2000/svg" xmlns:xlink="http://www.w3.org/1999/xlink">
    <!-- Generator: Sketch 55 (78076) - https://sketchapp.com -->
    <title>icon</title>
    <desc>Created with Sketch.</desc>
    <defs>
        <linearGradient x1="50%" y1="100%" x2="50%" y2="0%" id="linearGradient-1">
            <stop stop-color="#87D0F0" offset="0%"></stop>
            <stop stop-color="#17B5FA" offset="100%"></stop>
        </linearGradient>
        <circle id="path-2" cx="32" cy="32" r="32"></circle>
        <linearGradient x1="50%" y1="0%" x2="50%" y2="100%" id="linearGradient-4">
            <stop stop-color="#240000" offset="0%"></stop>
            <stop stop-color="#270000" offset="100%"></stop>
        </linearGradient>
        <linearGradient x1="50%" y1="0%" x2="50%" y2="100%" id="linearGradient-5">
            <stop stop-color="#240000" offset="0%"></stop>
            <stop stop-color="#270000" offset="100%"></stop>
        </linearGradient>
        <linearGradient x1="50%" y1="0%" x2="50%" y2="100%" id="linearGradient-6">
            <stop stop-color="#240000" offset="0%"></stop>
            <stop stop-color="#270000" offset="100%"></stop>
        </linearGradient>
        <linearGradient x1="50%" y1="0.501478041%" x2="50%" y2="100%" id="linearGradient-7">
            <stop stop-color="#F6E5D4" offset="0%"></stop>
            <stop stop-color="#FFD5AA" offset="100%"></stop>
        </linearGradient>
        <linearGradient x1="50%" y1="0%" x2="50%" y2="100%" id="linearGradient-8">
            <stop stop-color="#240000" offset="0%"></stop>
            <stop stop-color="#270000" offset="100%"></stop>
        </linearGradient>
        <linearGradient x1="50%" y1="0%" x2="50%" y2="98.9574535%" id="linearGradient-9">
            <stop stop-color="#D83E46" offset="0%"></stop>
            <stop stop-color="#E5343E" offset="100%"></stop>
        </linearGradient>
    </defs>
    <g id="Page-1" stroke="none" stroke-width="1" fill="none" fill-rule="evenodd">
        <g id="icon" transform="translate(32.000000, 32.000000) scale(-1, 1) translate(-32.000000, -32.000000) ">
            <mask id="mask-3" fill="white">
                <use xlink:href="#path-2"></use>
            </mask>
            <use id="Mask" fill="url(#linearGradient-1)" fill-rule="nonzero" xlink:href="#path-2"></use>
            <path d="M41.7642059,26.4196178 C48.6089217,27.881801 47.8626175,30.2433518 46.0776834,33.2516303 C44.5982532,35.2571493 46.3849857,36.3087985 51.6369141,36.4065777 C46.4539124,37.0030351 43.0031111,36.656877 41.5367843,35.3681034 C39.5812618,33.434943 44.3174894,30.4554761 38.2472295,30.3355479 C32.2369386,30.2156196 35.8522191,24.9574346 41.7642059,26.4196178 Z" id="hair-copy-2" fill="url(#linearGradient-4)" fill-rule="nonzero" mask="url(#mask-3)" transform="translate(43.396711, 31.426323) rotate(24.000000) translate(-43.396711, -31.426323) "></path>
            <path d="M21.0248949,16.0772868 C23.5861378,22.3619187 22.1454387,25.4256767 20.1444677,29.1178979 C18.8104871,31.5793787 18.9705648,33.9623017 20.6247008,36.2666667 C18.7037686,35.0621122 17.7433026,33.1243507 17.7433026,30.4533822 C17.7433026,26.4469294 20.6247008,23.9330766 18.2235356,20.6336449 C15.8223705,17.3342132 18.4636521,9.79265496 21.0248949,16.0772868 Z" id="hair-copy" fill="url(#linearGradient-5)" fill-rule="nonzero" mask="url(#mask-3)" transform="translate(19.840000, 24.960000) scale(-1, 1) translate(-19.840000, -24.960000) "></path>
            <path d="M36.6933333,34.1340658 C32.1101869,36.3344434 31.4416493,36.2165806 21.3333333,27.9511363 C15.2632267,22.9876855 17.9309049,18.2182682 19.6483091,14.6483333 C21.1784856,11.467585 23.7394983,9.79732945 27.4460417,9.25270833 C30.0330972,8.87257922 33.1517097,8.7562405 36.979375,10.26 C41.1167688,12.0772466 41.4554414,13.0175072 42.646875,14.966875 C43.8172481,16.8817846 44.9584485,19.8033756 44.6060417,21.957084 C43.865114,26.4852082 41.9945436,31.5889443 36.6933333,34.1340658 Z" id="hair" fill="url(#linearGradient-6)" fill-rule="nonzero" mask="url(#mask-3)"></path>
            <path d="M37.12,42.88 C35.5555556,46.2933333 33.5644444,48 32,48 C30.4355556,48 28.4444444,46.2933333 26.88,42.88 L26.88,38.6133333 C26.4159847,38.6269714 26.0248736,38.6269714 25.7066667,38.6133333 C20.7169475,38.399478 19.0495119,30.3729561 19.8325651,22.3440521 C20.4060189,16.4642404 20.413125,24.6779167 28.5197917,19.0245833 C28.1997917,25.21125 35.84,24.4266667 37.0133333,23.68 C40.126825,22.2477939 41.1834543,23.7931862 40.704375,26.235 C40.555561,26.9934885 39.8565504,28.8753906 39.3572917,29.421875 C38.7106062,30.1297315 38.4202258,30.6588429 37.1820984,30.4763398 C37.1842377,30.583076 37.1635382,34.7176294 37.12,42.88 Z" id="Mask" fill="url(#linearGradient-7)" mask="url(#mask-3)"></path>
            <path d="M36.5312275,17.5856721 C38.6089318,22.8031023 37.4402231,25.3465995 35.8170166,28.4118398 C34.7348789,30.4553333 34.8647354,32.4336089 36.2065862,34.3466667 C34.6483079,33.3466592 33.8691688,31.7379516 33.8691688,29.5205437 C33.8691688,26.1944319 36.2065862,24.1074599 34.2587383,21.368309 C32.3108905,18.6291581 34.4535231,12.3682418 36.5312275,17.5856721 Z" id="hair" fill="url(#linearGradient-8)" fill-rule="nonzero" mask="url(#mask-3)" transform="translate(35.570029, 24.960000) scale(-1, 1) translate(-35.570029, -24.960000) "></path>
            <path d="M26.88,38.6133333 C28.8,38.4711111 31.1917334,37.3972922 34.0552001,35.3918766 C33.1777937,38.4136525 30.7860603,40.1985826 26.88,40.7466667 L26.88,38.6133333 Z" id="Path-2" fill="#FF9768" fill-rule="nonzero" mask="url(#mask-3)"></path>
            <path d="M26.88,42.4142197 C27.433529,43.3336839 28.0259595,43.9040829 28.6572917,44.1254167 C30.9687649,44.9357778 32.0654197,44.8297917 32.3033333,44.8297917 C32.529114,44.8297917 33.820189,44.8543813 35.7333333,44.1254167 C36.3524885,43.8895002 36.8626968,43.3191012 37.2639583,42.4142197 C46.0305164,46.0324436 50.8180859,48.6133828 51.6266667,50.157037 C52.6696296,52.1481481 53.4518519,56.7703704 53.9733333,64.0237037 L10.0266667,64.0237037 C10.5481481,56.7703704 11.3303704,52.1481481 12.3733333,50.157037 C13.1815499,48.6140781 18.0171055,46.033139 26.88,42.4142197 Z" id="body" fill="url(#linearGradient-9)" mask="url(#mask-3)"></path>
            <path d="M33.4904167,50.9866667 C32.1959993,50.9866667 31.1466667,50.6046163 31.1466667,50.1333333 C31.1466667,49.6620503 32.1959993,49.28 33.4904167,49.28 C34.784834,49.28 35.8341667,49.6620503 35.8341667,50.1333333 C35.8341667,50.6046163 34.784834,50.9866667 33.4904167,50.9866667 Z M33.4904167,55.2533333 C32.1959993,55.2533333 31.1466667,54.871283 31.1466667,54.4 C31.1466667,53.928717 32.1959993,53.5466667 33.4904167,53.5466667 C34.784834,53.5466667 35.8341667,53.928717 35.8341667,54.4 C35.8341667,54.871283 34.784834,55.2533333 33.4904167,55.2533333 Z M33.4904167,59.52 C32.1959993,59.52 31.1466667,59.1379497 31.1466667,58.6666667 C31.1466667,58.1953837 32.1959993,57.8133333 33.4904167,57.8133333 C34.784834,57.8133333 35.8341667,58.1953837 35.8341667,58.6666667 C35.8341667,59.1379497 34.784834,59.52 33.4904167,59.52 Z" id="buttons" fill="#FBF6F6" mask="url(#mask-3)"></path>
        </g>
    </g>
</svg>